<mxfile host="65bd71144e">
    <diagram id="q_sU36RTnMXvuT2q-Ath" name="Page-1">
        <mxGraphModel dx="949" dy="1665" grid="1" gridSize="10" guides="1" tooltips="1" connect="1" arrows="1" fold="1" page="1" pageScale="1" pageWidth="850" pageHeight="1100" math="0" shadow="0">
            <root>
                <mxCell id="0"/>
                <mxCell id="1" parent="0"/>
                <mxCell id="6" value="Page" style="rounded=0;whiteSpace=wrap;html=1;verticalAlign=top;align=left;" vertex="1" parent="1">
                    <mxGeometry x="10" y="-90" width="500" height="490" as="geometry"/>
                </mxCell>
                <mxCell id="2" value="" style="shape=agent;offsetSize=8;strokeWidth=2;" vertex="1" parent="1">
                    <mxGeometry x="120" y="30" width="250" height="310" as="geometry"/>
                </mxCell>
                <mxCell id="0.2" value="Best viewed with the &lt;a href=&quot;https://github.com/ariel-bentu/tam-drawio&quot;&gt;TAM plugin&lt;/a&gt;" style="text;html=1;shape=tamPluginMissing;" vertex="1" connectable="0" parent="1">
                    <mxGeometry x="300" y="NaN" width="200" height="25" as="geometry"/>
                </mxCell>
                <mxCell id="3" value="CanvasH" style="text;html=1;align=center;verticalAlign=middle;resizable=0;points=[];autosize=1;strokeColor=none;fillColor=none;" vertex="1" parent="1">
                    <mxGeometry x="380" y="150" width="60" height="20" as="geometry"/>
                </mxCell>
                <mxCell id="7" value="" style="endArrow=classic;startArrow=classic;html=1;entryX=0.25;entryY=0;entryDx=0;entryDy=0;exitX=0.062;exitY=-0.004;exitDx=0;exitDy=0;exitPerimeter=0;" edge="1" parent="1" source="2" target="6">
                    <mxGeometry width="50" height="50" relative="1" as="geometry">
                        <mxPoint x="230" y="150" as="sourcePoint"/>
                        <mxPoint x="280" y="100" as="targetPoint"/>
                    </mxGeometry>
                </mxCell>
                <mxCell id="8" value="-yOffset" style="text;html=1;strokeColor=none;fillColor=none;align=center;verticalAlign=middle;whiteSpace=wrap;rounded=0;" vertex="1" parent="1">
                    <mxGeometry x="30" y="-40" width="60" height="30" as="geometry"/>
                </mxCell>
                <mxCell id="10" value="" style="rounded=0;whiteSpace=wrap;html=1;" vertex="1" parent="1">
                    <mxGeometry x="120" y="250" width="250" height="90" as="geometry"/>
                </mxCell>
                <mxCell id="11" value="" style="endArrow=classic;startArrow=classic;html=1;" edge="1" parent="1">
                    <mxGeometry width="50" height="50" relative="1" as="geometry">
                        <mxPoint x="560" y="340" as="sourcePoint"/>
                        <mxPoint x="560" y="240" as="targetPoint"/>
                    </mxGeometry>
                </mxCell>
                <mxCell id="13" value="kbHeight" style="text;html=1;align=center;verticalAlign=middle;resizable=0;points=[];autosize=1;strokeColor=none;fillColor=none;" vertex="1" parent="1">
                    <mxGeometry x="560" y="280" width="60" height="20" as="geometry"/>
                </mxCell>
                <mxCell id="14" value="yText" style="ellipse;whiteSpace=wrap;html=1;aspect=fixed;" vertex="1" parent="1">
                    <mxGeometry x="210" y="270" width="20" height="20" as="geometry"/>
                </mxCell>
                <mxCell id="17" value="" style="endArrow=classic;startArrow=classic;html=1;entryX=0.42;entryY=-0.002;entryDx=0;entryDy=0;entryPerimeter=0;" edge="1" parent="1" target="6">
                    <mxGeometry width="50" height="50" relative="1" as="geometry">
                        <mxPoint x="219.23000000000002" y="270" as="sourcePoint"/>
                        <mxPoint x="219.23000000000002" y="170" as="targetPoint"/>
                    </mxGeometry>
                </mxCell>
                <mxCell id="18" value="Actual Y" style="edgeLabel;html=1;align=center;verticalAlign=middle;resizable=0;points=[];" vertex="1" connectable="0" parent="17">
                    <mxGeometry x="-0.3287" y="-4" relative="1" as="geometry">
                        <mxPoint as="offset"/>
                    </mxGeometry>
                </mxCell>
                <mxCell id="19" value="" style="endArrow=classic;startArrow=classic;html=1;" edge="1" parent="1">
                    <mxGeometry width="50" height="50" relative="1" as="geometry">
                        <mxPoint x="460" y="340" as="sourcePoint"/>
                        <mxPoint x="460" y="30" as="targetPoint"/>
                    </mxGeometry>
                </mxCell>
                <mxCell id="20" value="topView" style="rounded=0;whiteSpace=wrap;html=1;" vertex="1" parent="1">
                    <mxGeometry x="120" y="-50" width="250" height="40" as="geometry"/>
                </mxCell>
                <mxCell id="21" value="tooBarHeight" style="rounded=0;whiteSpace=wrap;html=1;" vertex="1" parent="1">
                    <mxGeometry x="275" y="-10" width="95" height="40" as="geometry"/>
                </mxCell>
                <mxCell id="22" value="" style="ellipse;whiteSpace=wrap;html=1;aspect=fixed;" vertex="1" parent="1">
                    <mxGeometry x="80" y="130" width="20" height="20" as="geometry"/>
                </mxCell>
            </root>
        </mxGraphModel>
    </diagram>
    <diagram id="HIhq6V4pVNx2ZZGjNs3p" name="Page-2">
        <mxGraphModel dx="617" dy="367" grid="1" gridSize="10" guides="1" tooltips="1" connect="1" arrows="1" fold="1" page="1" pageScale="1" pageWidth="850" pageHeight="1100" math="0" shadow="0">
            <root>
                <mxCell id="ephZPgJX-JMvw1b65tYv-0"/>
                <mxCell id="ephZPgJX-JMvw1b65tYv-1" parent="ephZPgJX-JMvw1b65tYv-0"/>
                <mxCell id="ephZPgJX-JMvw1b65tYv-2" value="PageEditor" style="rounded=0;whiteSpace=wrap;html=1;verticalAlign=top;align=left;" vertex="1" parent="ephZPgJX-JMvw1b65tYv-1">
                    <mxGeometry x="90" y="30" width="320" height="280" as="geometry"/>
                </mxCell>
                <mxCell id="ephZPgJX-JMvw1b65tYv-9" value="" style="rounded=0;whiteSpace=wrap;html=1;" vertex="1" parent="ephZPgJX-JMvw1b65tYv-1">
                    <mxGeometry x="140" y="80" width="200" height="210" as="geometry"/>
                </mxCell>
                <mxCell id="ephZPgJX-JMvw1b65tYv-3" value="" style="rounded=0;whiteSpace=wrap;html=1;" vertex="1" parent="ephZPgJX-JMvw1b65tYv-1">
                    <mxGeometry x="150" y="113" width="180" height="168" as="geometry"/>
                </mxCell>
                <mxCell id="ephZPgJX-JMvw1b65tYv-4" value="toolbar" style="rounded=0;whiteSpace=wrap;html=1;" vertex="1" parent="ephZPgJX-JMvw1b65tYv-1">
                    <mxGeometry x="150" y="80" width="180" height="30" as="geometry"/>
                </mxCell>
                <mxCell id="ephZPgJX-JMvw1b65tYv-5" value="canvas" style="rounded=0;whiteSpace=wrap;html=1;" vertex="1" parent="ephZPgJX-JMvw1b65tYv-1">
                    <mxGeometry x="160" y="112" width="160" height="168" as="geometry"/>
                </mxCell>
                <mxCell id="ephZPgJX-JMvw1b65tYv-6" value="" style="triangle;whiteSpace=wrap;html=1;" vertex="1" parent="ephZPgJX-JMvw1b65tYv-1">
                    <mxGeometry x="320" y="180" width="10" height="20" as="geometry"/>
                </mxCell>
                <mxCell id="ephZPgJX-JMvw1b65tYv-7" value="" style="triangle;whiteSpace=wrap;html=1;rotation=-180;" vertex="1" parent="ephZPgJX-JMvw1b65tYv-1">
                    <mxGeometry x="150" y="180" width="10" height="20" as="geometry"/>
                </mxCell>
                <mxCell id="ephZPgJX-JMvw1b65tYv-8" value="mainContainer" style="text;html=1;strokeColor=none;fillColor=none;align=center;verticalAlign=middle;whiteSpace=wrap;rounded=0;" vertex="1" parent="ephZPgJX-JMvw1b65tYv-1">
                    <mxGeometry x="320" y="80" width="60" height="30" as="geometry"/>
                </mxCell>
                <mxCell id="ephZPgJX-JMvw1b65tYv-10" value="Navigator" style="text;html=1;strokeColor=none;fillColor=none;align=center;verticalAlign=middle;whiteSpace=wrap;rounded=0;" vertex="1" parent="ephZPgJX-JMvw1b65tYv-1">
                    <mxGeometry x="320" y="113" width="60" height="30" as="geometry"/>
                </mxCell>
                <mxCell id="ephZPgJX-JMvw1b65tYv-11" value="xOffset" style="endArrow=classic;startArrow=classic;html=1;entryX=0;entryY=0.321;entryDx=0;entryDy=0;entryPerimeter=0;" edge="1" parent="ephZPgJX-JMvw1b65tYv-1" target="ephZPgJX-JMvw1b65tYv-2">
                    <mxGeometry width="50" height="50" relative="1" as="geometry">
                        <mxPoint x="160" y="120" as="sourcePoint"/>
                        <mxPoint x="340" y="170" as="targetPoint"/>
                    </mxGeometry>
                </mxCell>
                <mxCell id="ephZPgJX-JMvw1b65tYv-12" value="yOffset" style="endArrow=classic;startArrow=classic;html=1;entryX=0.25;entryY=0;entryDx=0;entryDy=0;exitX=0.063;exitY=-0.012;exitDx=0;exitDy=0;exitPerimeter=0;" edge="1" parent="ephZPgJX-JMvw1b65tYv-1" source="ephZPgJX-JMvw1b65tYv-5" target="ephZPgJX-JMvw1b65tYv-2">
                    <mxGeometry width="50" height="50" relative="1" as="geometry">
                        <mxPoint x="290" y="220" as="sourcePoint"/>
                        <mxPoint x="340" y="170" as="targetPoint"/>
                    </mxGeometry>
                </mxCell>
                <mxCell id="ephZPgJX-JMvw1b65tYv-13" value="MoreMenu" style="rounded=0;whiteSpace=wrap;html=1;fillColor=none;dashed=1;" vertex="1" parent="ephZPgJX-JMvw1b65tYv-1">
                    <mxGeometry x="140" y="112" width="90" height="60" as="geometry"/>
                </mxCell>
            </root>
        </mxGraphModel>
    </diagram>
</mxfile>